<svg xmlns="http://www.w3.org/2000/svg" xmlns:xlink="http://www.w3.org/1999/xlink" width="500" zoomAndPan="magnify" viewBox="0 0 375 374.999991" height="500" preserveAspectRatio="xMidYMid meet" version="1.0"><defs><g/></defs><g fill="#21325e" fill-opacity="1"><g transform="translate(4.421554, 277.775079)"><g><path d="M 66.765625 -35.8125 C 67.222656 -33.1875 67.375 -30.644531 67.21875 -28.1875 C 67.21875 -25.101562 66.753906 -22.175781 65.828125 -19.40625 C 64.910156 -16.632812 63.523438 -13.863281 61.671875 -11.09375 C 59.828125 -8.320312 57.285156 -6.007812 54.046875 -4.15625 C 50.816406 -2.15625 47.351562 -0.691406 43.65625 0.234375 C 40.269531 1.148438 36.882812 1.609375 33.5 1.609375 C 29.644531 1.609375 26.332031 1.148438 23.5625 0.234375 C 22.019531 -0.234375 20.59375 -0.695312 19.28125 -1.15625 C 17.976562 -1.613281 16.710938 -2 15.484375 -2.3125 L 12.25 -3.703125 C 10.851562 -4.160156 9.617188 -4.160156 8.546875 -3.703125 C 7.929688 -3.546875 7.394531 -2.925781 6.9375 -1.84375 C 6.9375 -1.226562 6.9375 -0.921875 6.9375 -0.921875 L 7.625 0 L 0.921875 0 L 0.6875 -29.796875 L 8.3125 -29.796875 L 8.3125 -29.34375 C 8.46875 -28.257812 8.695312 -27.023438 9 -25.640625 C 9.3125 -24.253906 9.625 -22.867188 9.9375 -21.484375 C 10.707031 -18.710938 12.015625 -16.328125 13.859375 -14.328125 C 15.554688 -12.316406 18.019531 -10.160156 21.25 -7.859375 C 24.632812 -5.390625 28.640625 -4.078125 33.265625 -3.921875 C 39.421875 -3.921875 43.882812 -5.617188 46.65625 -9.015625 C 49.582031 -12.398438 51.28125 -15.707031 51.75 -18.9375 C 52.207031 -22.789062 51.585938 -26.257812 49.890625 -29.34375 C 48.359375 -32.113281 46.359375 -34.804688 43.890625 -37.421875 C 43.273438 -37.878906 42.582031 -38.453125 41.8125 -39.140625 C 41.039062 -39.835938 40.039062 -40.5 38.8125 -41.125 C 37.726562 -41.882812 36.609375 -42.648438 35.453125 -43.421875 C 34.296875 -44.191406 33.101562 -44.882812 31.875 -45.5 C 30.644531 -46.269531 29.453125 -46.960938 28.296875 -47.578125 C 27.140625 -48.203125 26.023438 -48.820312 24.953125 -49.4375 C 23.867188 -50.050781 22.976562 -50.550781 22.28125 -50.9375 C 21.59375 -51.320312 21.097656 -51.59375 20.796875 -51.75 C 19.710938 -52.519531 18.515625 -53.285156 17.203125 -54.046875 C 15.898438 -54.816406 14.628906 -55.585938 13.390625 -56.359375 C 11.085938 -57.898438 9.085938 -59.519531 7.390625 -61.21875 C 6.460938 -61.988281 5.613281 -62.875 4.84375 -63.875 C 4.082031 -64.875 3.390625 -65.835938 2.765625 -66.765625 C 2.617188 -67.378906 2.351562 -68.109375 1.96875 -68.953125 C 1.582031 -69.796875 1.234375 -70.835938 0.921875 -72.078125 C 0.304688 -74.078125 0 -76.769531 0 -80.15625 C 0 -83.394531 0.535156 -86.550781 1.609375 -89.625 C 2.847656 -92.863281 5.160156 -95.867188 8.546875 -98.640625 C 15.328125 -104.023438 23.023438 -106.488281 31.640625 -106.03125 C 35.492188 -106.03125 38.804688 -105.644531 41.578125 -104.875 C 46.972656 -103.644531 51.320312 -100.988281 54.625 -96.90625 C 57.9375 -92.820312 59.898438 -88.085938 60.515625 -82.703125 C 60.671875 -82.390625 60.828125 -81.425781 60.984375 -79.8125 C 61.140625 -78.195312 61.21875 -76.617188 61.21875 -75.078125 C 61.21875 -73.535156 61.0625 -72.765625 60.75 -72.765625 L 53.125 -72.765625 L 53.125 -73.453125 C 53.125 -76.078125 52.929688 -78.660156 52.546875 -81.203125 C 52.160156 -83.742188 51.273438 -86.164062 49.890625 -88.46875 C 48.816406 -90.625 47.394531 -92.507812 45.625 -94.125 C 43.851562 -95.75 41.890625 -97.175781 39.734375 -98.40625 C 37.117188 -100.25 33.804688 -101.019531 29.796875 -100.71875 C 25.796875 -100.71875 22.484375 -100.253906 19.859375 -99.328125 C 17.398438 -98.398438 15.476562 -97.242188 14.09375 -95.859375 C 12.707031 -94.472656 11.78125 -93.085938 11.3125 -91.703125 C 10.851562 -90.316406 10.78125 -89.085938 11.09375 -88.015625 C 11.863281 -84.773438 13.632812 -81.769531 16.40625 -79 C 17.945312 -77.457031 19.945312 -75.835938 22.40625 -74.140625 C 24.875 -72.453125 27.800781 -70.6875 31.1875 -68.84375 C 31.800781 -68.6875 32.53125 -68.375 33.375 -67.90625 C 34.226562 -67.445312 35.269531 -66.832031 36.5 -66.0625 C 37.726562 -65.445312 38.992188 -64.753906 40.296875 -63.984375 C 41.609375 -63.210938 42.960938 -62.441406 44.359375 -61.671875 C 45.585938 -60.898438 46.894531 -60.128906 48.28125 -59.359375 C 49.664062 -58.597656 50.894531 -57.832031 51.96875 -57.0625 C 53.207031 -56.132812 54.285156 -55.320312 55.203125 -54.625 C 56.128906 -53.9375 56.898438 -53.207031 57.515625 -52.4375 C 60.898438 -48.894531 63.132812 -45.96875 64.21875 -43.65625 C 64.832031 -42.582031 65.367188 -41.390625 65.828125 -40.078125 C 66.296875 -38.765625 66.609375 -37.34375 66.765625 -35.8125 Z M 66.765625 -35.8125 "/></g></g></g><g fill="#21325e" fill-opacity="1"><g transform="translate(69.796439, 277.775079)"><g><path d="M 101.171875 -104.640625 L 136.515625 -104.640625 L 136.515625 -98.875 L 135.828125 -98.875 C 133.984375 -98.875 132.328125 -98.875 130.859375 -98.875 C 129.398438 -98.875 128.050781 -98.796875 126.8125 -98.640625 C 124.8125 -98.484375 123.039062 -96.789062 121.5 -93.5625 C 121.351562 -92.9375 121.125 -92.082031 120.8125 -91 C 120.5 -89.925781 120.113281 -88.546875 119.65625 -86.859375 C 119.195312 -85.316406 118.734375 -83.503906 118.265625 -81.421875 C 117.804688 -79.347656 117.269531 -77.234375 116.65625 -75.078125 C 115.570312 -70.453125 114.414062 -65.367188 113.1875 -59.828125 C 112.570312 -57.054688 111.914062 -54.285156 111.21875 -51.515625 C 110.53125 -48.742188 109.878906 -46.046875 109.265625 -43.421875 C 107.722656 -36.953125 106.101562 -30.140625 104.40625 -22.984375 C 102.71875 -15.828125 100.945312 -8.320312 99.09375 -0.46875 L 99.09375 0 L 74.15625 0 L 73.921875 -0.46875 C 73.765625 -2.15625 73.453125 -4 72.984375 -6 C 72.523438 -8.007812 72.066406 -10.015625 71.609375 -12.015625 C 71.296875 -13.859375 70.945312 -15.78125 70.5625 -17.78125 C 70.1875 -19.789062 69.765625 -21.945312 69.296875 -24.25 C 68.992188 -26.101562 68.609375 -27.953125 68.140625 -29.796875 C 67.679688 -31.648438 67.296875 -33.578125 66.984375 -35.578125 C 66.523438 -33.578125 66.0625 -31.613281 65.59375 -29.6875 C 65.132812 -27.757812 64.675781 -25.945312 64.21875 -24.25 C 63.601562 -21.945312 63.0625 -19.789062 62.59375 -17.78125 C 62.132812 -15.78125 61.675781 -13.859375 61.21875 -12.015625 C 60.75 -10.015625 60.285156 -8.050781 59.828125 -6.125 C 59.367188 -4.195312 58.832031 -2.3125 58.21875 -0.46875 L 57.984375 0 L 34.421875 0 L 34.421875 -0.46875 C 32.421875 -7.695312 30.492188 -14.738281 28.640625 -21.59375 C 26.796875 -28.445312 25.023438 -34.957031 23.328125 -41.125 C 22.710938 -43.738281 22.054688 -46.429688 21.359375 -49.203125 C 20.671875 -51.972656 19.941406 -54.664062 19.171875 -57.28125 C 18.398438 -59.90625 17.664062 -62.488281 16.96875 -65.03125 C 16.28125 -67.570312 15.628906 -69.992188 15.015625 -72.296875 C 14.398438 -74.765625 13.820312 -77.035156 13.28125 -79.109375 C 12.738281 -81.191406 12.238281 -83.082031 11.78125 -84.78125 C 10.550781 -88.78125 9.9375 -91.550781 9.9375 -93.09375 C 9.9375 -93.40625 9.894531 -93.5625 9.8125 -93.5625 C 9.738281 -93.5625 9.703125 -93.5625 9.703125 -93.5625 C 9.703125 -93.707031 9.660156 -93.816406 9.578125 -93.890625 C 9.503906 -93.972656 9.46875 -94.09375 9.46875 -94.25 C 8.695312 -96.09375 8.039062 -97.242188 7.5 -97.703125 C 6.96875 -98.171875 6.625 -98.40625 6.46875 -98.40625 C 5.851562 -98.5625 5.195312 -98.640625 4.5 -98.640625 C 3.8125 -98.640625 3.003906 -98.640625 2.078125 -98.640625 L 1.390625 -98.640625 L 1.390625 -104.640625 L 36.265625 -104.640625 L 36.265625 -98.875 L 35.578125 -98.875 C 33.421875 -98.875 31.84375 -98.71875 30.84375 -98.40625 C 29.84375 -98.09375 29.1875 -97.785156 28.875 -97.484375 C 28.101562 -96.554688 27.875 -95.25 28.1875 -93.5625 L 51.515625 -6.703125 L 63.296875 -54.28125 C 61.441406 -62.90625 59.820312 -70.757812 58.4375 -77.84375 C 58.4375 -78 58.363281 -78.15625 58.21875 -78.3125 C 58.0625 -79.695312 57.828125 -81.117188 57.515625 -82.578125 C 57.210938 -84.046875 56.90625 -85.472656 56.59375 -86.859375 C 56.4375 -87.472656 56.320312 -88.007812 56.25 -88.46875 C 56.175781 -88.9375 56.0625 -89.476562 55.90625 -90.09375 C 55.90625 -91.164062 55.671875 -92.242188 55.203125 -93.328125 C 54.898438 -94.554688 54.441406 -95.632812 53.828125 -96.5625 C 53.515625 -97.789062 52.894531 -98.40625 51.96875 -98.40625 C 51.351562 -98.5625 50.695312 -98.640625 50 -98.640625 C 49.3125 -98.640625 48.582031 -98.640625 47.8125 -98.640625 L 47.125 -98.640625 L 47.125 -104.640625 L 81.78125 -104.640625 L 81.78125 -98.875 L 81.078125 -98.875 C 78.765625 -98.875 77.144531 -98.71875 76.21875 -98.40625 C 75.300781 -98.09375 74.6875 -97.785156 74.375 -97.484375 C 73.457031 -96.554688 73.226562 -95.25 73.6875 -93.5625 L 91.25 -7.15625 L 112.953125 -94.9375 C 113.722656 -96.320312 113.722656 -97.25 112.953125 -97.71875 C 112.179688 -98.488281 111.257812 -98.875 110.1875 -98.875 C 108.800781 -99.175781 107.414062 -99.175781 106.03125 -98.875 C 105.257812 -98.71875 104.523438 -98.640625 103.828125 -98.640625 C 103.140625 -98.640625 102.566406 -98.640625 102.109375 -98.640625 L 101.171875 -98.640625 Z M 101.171875 -104.640625 "/></g></g></g><g fill="#21325e" fill-opacity="1"><g transform="translate(205.62845, 277.775079)"><g><path d="M 8.078125 -139.984375 C 5.773438 -141.835938 4.625 -144.222656 4.625 -147.140625 C 4.625 -150.066406 5.773438 -152.457031 8.078125 -154.3125 C 10.546875 -156.3125 13.550781 -157.3125 17.09375 -157.3125 C 20.789062 -157.3125 23.71875 -156.3125 25.875 -154.3125 C 28.332031 -152.3125 29.5625 -149.921875 29.5625 -147.140625 C 29.5625 -144.367188 28.332031 -141.984375 25.875 -139.984375 C 23.71875 -137.984375 20.789062 -136.984375 17.09375 -136.984375 C 13.550781 -136.984375 10.546875 -137.984375 8.078125 -139.984375 Z M 26.328125 -4.625 L 31.640625 -4.625 L 31.640625 0 L 1.390625 0 L 1.390625 -4.625 L 6.9375 -4.625 L 6.9375 -86.390625 C 6.9375 -86.703125 6.859375 -87.085938 6.703125 -87.546875 C 6.234375 -88.316406 5.613281 -88.859375 4.84375 -89.171875 L 0.234375 -89.171875 L 0.234375 -92.859375 L 0.46875 -93.09375 C 1.382812 -93.863281 2.769531 -94.785156 4.625 -95.859375 C 5.394531 -96.328125 6.28125 -96.867188 7.28125 -97.484375 C 8.28125 -98.097656 9.394531 -98.789062 10.625 -99.5625 C 11.851562 -100.332031 13.238281 -101.253906 14.78125 -102.328125 C 16.320312 -103.410156 18.09375 -104.566406 20.09375 -105.796875 C 22.25 -107.179688 23.867188 -107.335938 24.953125 -106.265625 C 25.867188 -105.335938 26.328125 -104.101562 26.328125 -102.5625 Z M 26.328125 -4.625 "/></g></g></g><g fill="#21325e" fill-opacity="1"><g transform="translate(238.431312, 277.775079)"><g><path d="M 68.84375 -164.015625 C 70.6875 -161.390625 71.144531 -158.304688 70.21875 -154.765625 C 69.300781 -151.222656 66.757812 -149.066406 62.59375 -148.296875 C 61.976562 -148.148438 61.320312 -148.035156 60.625 -147.953125 C 59.9375 -147.878906 59.207031 -147.84375 58.4375 -147.84375 C 56.90625 -148 55.441406 -148.382812 54.046875 -149 C 52.203125 -150.226562 51.050781 -151.691406 50.59375 -153.390625 C 50.125 -155.078125 50.273438 -156.691406 51.046875 -158.234375 C 51.515625 -159.460938 52.132812 -160.617188 52.90625 -161.703125 C 53.519531 -162.929688 53.828125 -164.007812 53.828125 -164.9375 C 53.515625 -168.007812 51.742188 -170.242188 48.515625 -171.640625 C 45.273438 -173.023438 42.039062 -173.023438 38.8125 -171.640625 C 35.414062 -170.242188 33.644531 -168.160156 33.5 -165.390625 C 33.34375 -163.859375 33.265625 -162.359375 33.265625 -160.890625 C 33.265625 -159.429688 33.265625 -158.082031 33.265625 -156.84375 L 33.265625 -106.953125 C 33.566406 -106.953125 33.796875 -106.910156 33.953125 -106.828125 C 34.109375 -106.753906 34.265625 -106.71875 34.421875 -106.71875 C 36.109375 -106.414062 38.300781 -106.109375 41 -105.796875 C 43.695312 -105.492188 46.429688 -105.414062 49.203125 -105.5625 C 51.972656 -105.71875 54.050781 -106.410156 55.4375 -107.640625 C 56.363281 -108.410156 57.328125 -109.101562 58.328125 -109.71875 C 59.328125 -110.34375 60.367188 -110.882812 61.453125 -111.34375 C 61.597656 -111.5 62.171875 -111.769531 63.171875 -112.15625 C 64.179688 -112.539062 64.300781 -112.421875 63.53125 -111.796875 C 59.675781 -108.410156 55.359375 -105.675781 50.578125 -103.59375 C 45.804688 -101.519531 40.804688 -100.484375 35.578125 -100.484375 C 35.265625 -100.484375 34.875 -100.484375 34.40625 -100.484375 C 33.945312 -100.484375 33.566406 -100.484375 33.265625 -100.484375 L 33.265625 -4.84375 L 40.65625 -4.84375 L 40.65625 -0.234375 L 7.625 -0.234375 L 7.625 -4.84375 L 13.859375 -4.84375 L 13.859375 -103.953125 C 11.859375 -104.253906 9.894531 -104.597656 7.96875 -104.984375 C 6.039062 -105.367188 4.15625 -105.5625 2.3125 -105.5625 C 0.15625 -105.875 -1.847656 -105.875 -3.703125 -105.5625 C -4.773438 -105.414062 -5.503906 -105.222656 -5.890625 -104.984375 C -6.273438 -104.753906 -6.003906 -105.179688 -5.078125 -106.265625 C -6.003906 -105.179688 -7.503906 -104.289062 -9.578125 -103.59375 C -11.660156 -102.90625 -13.007812 -102.175781 -13.625 -101.40625 C -10.238281 -105.257812 -6.15625 -107.878906 -1.375 -109.265625 C 3.394531 -110.648438 8.164062 -111.113281 12.9375 -110.65625 C 13.09375 -110.65625 13.242188 -110.65625 13.390625 -110.65625 C 13.546875 -110.65625 13.703125 -110.65625 13.859375 -110.65625 L 13.859375 -158.234375 C 14.316406 -162.085938 15.550781 -165.476562 17.5625 -168.40625 C 19.40625 -170.863281 22.097656 -173.171875 25.640625 -175.328125 C 29.179688 -177.328125 34.03125 -178.328125 40.1875 -178.328125 C 40.957031 -178.328125 41.804688 -178.285156 42.734375 -178.203125 C 43.660156 -178.128906 44.660156 -178.019531 45.734375 -177.875 C 48.046875 -177.40625 50.28125 -176.75 52.4375 -175.90625 C 54.59375 -175.0625 56.671875 -174.019531 58.671875 -172.78125 C 60.828125 -171.550781 62.75 -170.203125 64.4375 -168.734375 C 66.132812 -167.273438 67.523438 -165.703125 68.609375 -164.015625 Z M 68.84375 -164.015625 "/></g></g></g><g fill="#21325e" fill-opacity="1"><g transform="translate(302.651133, 277.775079)"><g><path d="M 12.703125 -20.796875 C 12.085938 -23.410156 11.78125 -26.488281 11.78125 -30.03125 C 12.09375 -42.8125 12.171875 -55.59375 12.015625 -68.375 C 11.859375 -81.15625 11.78125 -93.859375 11.78125 -106.484375 L -1.390625 -106.484375 L -1.390625 -111.109375 L -0.6875 -111.109375 C 0.226562 -111.109375 1.109375 -111.109375 1.953125 -111.109375 C 2.804688 -111.109375 3.695312 -111.1875 4.625 -111.34375 C 5.394531 -111.5 6.160156 -111.648438 6.921875 -111.796875 C 7.691406 -111.953125 8.460938 -112.109375 9.234375 -112.265625 C 10.929688 -112.878906 12.164062 -113.570312 12.9375 -114.34375 C 14.9375 -116.039062 16.707031 -118.351562 18.25 -121.28125 C 19.019531 -122.507812 19.632812 -123.773438 20.09375 -125.078125 C 20.5625 -126.390625 21.023438 -127.660156 21.484375 -128.890625 C 21.941406 -130.429688 22.398438 -131.894531 22.859375 -133.28125 C 23.328125 -134.664062 23.640625 -136.050781 23.796875 -137.4375 L 24.03125 -137.90625 L 31.875 -137.90625 L 31.875 -111.109375 L 54.984375 -111.109375 L 54.984375 -106.484375 L 31.875 -106.484375 C 31.875 -103.410156 31.875 -100.296875 31.875 -97.140625 C 31.875 -93.984375 31.875 -90.785156 31.875 -87.546875 C 31.875 -81.847656 31.875 -76.035156 31.875 -70.109375 C 31.875 -64.179688 31.875 -58.289062 31.875 -52.4375 C 31.875 -49.664062 31.875 -46.851562 31.875 -44 C 31.875 -41.15625 31.875 -38.347656 31.875 -35.578125 C 31.875 -34.191406 31.910156 -32.765625 31.984375 -31.296875 C 32.066406 -29.835938 32.109375 -28.335938 32.109375 -26.796875 C 32.109375 -23.867188 32.257812 -20.898438 32.5625 -17.890625 C 32.875 -14.890625 33.835938 -12.3125 35.453125 -10.15625 C 37.078125 -8.007812 39.8125 -6.78125 43.65625 -6.46875 C 46.28125 -6.15625 49.128906 -6.925781 52.203125 -8.78125 C 55.441406 -10.46875 58.445312 -13.78125 61.21875 -18.71875 L 61.671875 -19.40625 L 62.140625 -18.9375 C 62.753906 -18.632812 63.289062 -18.40625 63.75 -18.25 C 64.675781 -17.789062 65.367188 -17.5625 65.828125 -17.5625 L 66.984375 -17.5625 L 66.53125 -16.625 C 65.144531 -14.007812 63.679688 -11.851562 62.140625 -10.15625 C 61.523438 -9.082031 60.753906 -8.160156 59.828125 -7.390625 C 58.898438 -6.617188 58.050781 -5.847656 57.28125 -5.078125 C 54.976562 -3.078125 52.285156 -1.691406 49.203125 -0.921875 C 45.972656 -0.304688 42.625 0 39.15625 0 C 35.6875 0 32.335938 -0.535156 29.109375 -1.609375 C 24.179688 -3.148438 20.40625 -5.613281 17.78125 -9 C 15.164062 -12.394531 13.472656 -16.328125 12.703125 -20.796875 Z M 12.703125 -20.796875 "/></g></g></g><g fill="#21325e" fill-opacity="1"><g transform="translate(237.737566, 300.514317)"><g><path d="M 7.8125 0 L 5.6875 0 L 2.5 -5.890625 C 2.53125 -5.191406 2.546875 -4.398438 2.546875 -3.515625 L 2.546875 0 L 1 0 L 1 -7.765625 L 3.0625 -7.765625 L 6.328125 -1.75 C 6.285156 -2.445312 6.265625 -3.265625 6.265625 -4.203125 L 6.265625 -7.765625 L 7.8125 -7.765625 Z M 7.8125 0 "/></g></g></g><g fill="#21325e" fill-opacity="1"><g transform="translate(247.942008, 300.514317)"><g><path d="M 6.609375 -1.21875 L 6.609375 0 L 1 0 L 1 -7.765625 L 6.484375 -7.765625 L 6.484375 -6.546875 L 2.546875 -6.546875 L 2.546875 -4.5 L 6.203125 -4.5 L 6.203125 -3.28125 L 2.546875 -3.28125 L 2.546875 -1.21875 Z M 6.609375 -1.21875 "/></g></g></g><g fill="#21325e" fill-opacity="1"><g transform="translate(256.526436, 300.514317)"><g><path d="M 5.796875 0 L 3.875 -2.9375 L 2.0625 0 L 0.21875 0 L 3 -3.921875 L 0.40625 -7.765625 L 2.203125 -7.765625 L 3.9375 -4.890625 L 5.765625 -7.765625 L 7.546875 -7.765625 L 4.84375 -3.953125 L 7.609375 0 Z M 5.796875 0 "/></g></g></g><g fill="#21325e" fill-opacity="1"><g transform="translate(265.785872, 300.514317)"><g><path d="M 7.078125 -6.546875 L 4.4375 -6.546875 L 4.4375 0 L 2.890625 0 L 2.890625 -6.546875 L 0.265625 -6.546875 L 0.265625 -7.765625 L 7.078125 -7.765625 Z M 7.078125 -6.546875 "/></g></g></g><g fill="#21325e" fill-opacity="1"><g transform="translate(274.449046, 300.514317)"><g><path d="M 4.5625 -3.953125 L 7.6875 -3.953125 L 7.6875 0 L 6.4375 0 L 6.328125 -1.265625 L 5.984375 -0.46875 C 5.554688 -0.0507812 4.925781 0.15625 4.09375 0.15625 C 3.007812 0.15625 2.148438 -0.195312 1.515625 -0.90625 C 0.890625 -1.625 0.578125 -2.601562 0.578125 -3.84375 C 0.578125 -5.082031 0.9375 -6.070312 1.65625 -6.8125 C 2.375 -7.550781 3.289062 -7.921875 4.40625 -7.921875 C 5.414062 -7.921875 6.203125 -7.675781 6.765625 -7.1875 C 7.335938 -6.695312 7.664062 -6.050781 7.75 -5.25 L 7.765625 -5.125 L 6.203125 -5.125 L 6.1875 -5.25 C 5.988281 -6.257812 5.382812 -6.765625 4.375 -6.765625 C 3.738281 -6.765625 3.21875 -6.507812 2.8125 -6 C 2.414062 -5.488281 2.21875 -4.796875 2.21875 -3.921875 C 2.21875 -2.984375 2.410156 -2.257812 2.796875 -1.75 C 3.191406 -1.25 3.703125 -1 4.328125 -1 C 4.828125 -1 5.242188 -1.148438 5.578125 -1.453125 C 5.921875 -1.765625 6.128906 -2.195312 6.203125 -2.75 L 4.5625 -2.75 Z M 4.5625 -3.953125 "/></g></g></g><g fill="#21325e" fill-opacity="1"><g transform="translate(284.394736, 300.514317)"><g><path d="M 6.609375 -1.21875 L 6.609375 0 L 1 0 L 1 -7.765625 L 6.484375 -7.765625 L 6.484375 -6.546875 L 2.546875 -6.546875 L 2.546875 -4.5 L 6.203125 -4.5 L 6.203125 -3.28125 L 2.546875 -3.28125 L 2.546875 -1.21875 Z M 6.609375 -1.21875 "/></g></g></g><g fill="#21325e" fill-opacity="1"><g transform="translate(292.979167, 300.514317)"><g><path d="M 7.8125 0 L 5.6875 0 L 2.5 -5.890625 C 2.53125 -5.191406 2.546875 -4.398438 2.546875 -3.515625 L 2.546875 0 L 1 0 L 1 -7.765625 L 3.0625 -7.765625 L 6.328125 -1.75 C 6.285156 -2.445312 6.265625 -3.265625 6.265625 -4.203125 L 6.265625 -7.765625 L 7.8125 -7.765625 Z M 7.8125 0 "/></g></g></g><g fill="#21325e" fill-opacity="1"><g transform="translate(303.183611, 300.514317)"><g/></g></g><g fill="#21325e" fill-opacity="1"><g transform="translate(307.020506, 300.514317)"><g><path d="M 2.546875 0 L 1 0 L 1 -7.765625 L 2.546875 -7.765625 Z M 2.546875 0 "/></g></g></g><g fill="#21325e" fill-opacity="1"><g transform="translate(311.959913, 300.514317)"><g><path d="M 4.40625 -7.921875 C 5.59375 -7.921875 6.53125 -7.550781 7.21875 -6.8125 C 7.90625 -6.082031 8.25 -5.101562 8.25 -3.875 C 8.25 -2.65625 7.90625 -1.675781 7.21875 -0.9375 C 6.53125 -0.207031 5.59375 0.15625 4.40625 0.15625 C 3.21875 0.15625 2.28125 -0.207031 1.59375 -0.9375 C 0.914062 -1.675781 0.578125 -2.65625 0.578125 -3.875 C 0.578125 -5.101562 0.914062 -6.082031 1.59375 -6.8125 C 2.28125 -7.550781 3.21875 -7.921875 4.40625 -7.921875 Z M 2.78125 -1.75 C 3.175781 -1.25 3.71875 -1 4.40625 -1 C 5.09375 -1 5.628906 -1.253906 6.015625 -1.765625 C 6.410156 -2.273438 6.609375 -2.976562 6.609375 -3.875 C 6.609375 -4.789062 6.410156 -5.5 6.015625 -6 C 5.628906 -6.507812 5.09375 -6.765625 4.40625 -6.765625 C 3.707031 -6.765625 3.160156 -6.507812 2.765625 -6 C 2.378906 -5.5 2.1875 -4.789062 2.1875 -3.875 C 2.1875 -2.96875 2.382812 -2.257812 2.78125 -1.75 Z M 2.78125 -1.75 "/></g></g></g><g fill="#21325e" fill-opacity="1"><g transform="translate(322.220605, 300.514317)"><g><path d="M 3.578125 -7.921875 C 4.460938 -7.921875 5.140625 -7.695312 5.609375 -7.25 C 6.078125 -6.8125 6.359375 -6.222656 6.453125 -5.484375 L 4.859375 -5.484375 C 4.816406 -5.890625 4.679688 -6.203125 4.453125 -6.421875 C 4.234375 -6.648438 3.921875 -6.765625 3.515625 -6.765625 C 3.191406 -6.765625 2.929688 -6.679688 2.734375 -6.515625 C 2.535156 -6.359375 2.4375 -6.132812 2.4375 -5.84375 C 2.4375 -5.507812 2.554688 -5.25 2.796875 -5.0625 C 3.035156 -4.875 3.460938 -4.707031 4.078125 -4.5625 C 4.929688 -4.375 5.554688 -4.078125 5.953125 -3.671875 C 6.359375 -3.273438 6.5625 -2.765625 6.5625 -2.140625 C 6.5625 -1.429688 6.28125 -0.867188 5.71875 -0.453125 C 5.164062 -0.046875 4.488281 0.15625 3.6875 0.15625 C 2.738281 0.15625 1.984375 -0.0507812 1.421875 -0.46875 C 0.859375 -0.882812 0.539062 -1.492188 0.46875 -2.296875 L 2.0625 -2.296875 C 2.144531 -1.878906 2.332031 -1.554688 2.625 -1.328125 C 2.914062 -1.109375 3.265625 -1 3.671875 -1 C 4.023438 -1 4.320312 -1.085938 4.5625 -1.265625 C 4.8125 -1.453125 4.9375 -1.691406 4.9375 -1.984375 C 4.9375 -2.304688 4.816406 -2.566406 4.578125 -2.765625 C 4.347656 -2.972656 3.953125 -3.144531 3.390625 -3.28125 C 2.515625 -3.488281 1.863281 -3.765625 1.4375 -4.109375 C 1.007812 -4.460938 0.796875 -4.972656 0.796875 -5.640625 C 0.796875 -6.335938 1.066406 -6.890625 1.609375 -7.296875 C 2.148438 -7.710938 2.804688 -7.921875 3.578125 -7.921875 Z M 3.578125 -7.921875 "/></g></g></g><g fill="#21325e" fill-opacity="1"><g transform="translate(330.715038, 300.514317)"><g/></g></g><g fill="#21325e" fill-opacity="1"><g transform="translate(334.551933, 300.514317)"><g><path d="M 5.203125 -2.34375 L 2.59375 -2.34375 L 1.828125 0 L 0.171875 0 L 2.96875 -7.765625 L 4.921875 -7.765625 L 7.65625 0 L 5.96875 0 Z M 3.921875 -6.4375 L 3 -3.5625 L 4.8125 -3.5625 Z M 3.921875 -6.4375 "/></g></g></g><g fill="#21325e" fill-opacity="1"><g transform="translate(343.81137, 300.514317)"><g><path d="M 4.8125 -7.703125 C 5.4375 -7.640625 5.941406 -7.398438 6.328125 -6.984375 C 6.710938 -6.578125 6.90625 -6.03125 6.90625 -5.34375 C 6.90625 -4.65625 6.707031 -4.109375 6.3125 -3.703125 C 5.914062 -3.296875 5.414062 -3.054688 4.8125 -2.984375 C 4.488281 -2.941406 4.113281 -2.921875 3.6875 -2.921875 L 2.546875 -2.921875 L 2.546875 0 L 1 0 L 1 -7.765625 L 3.6875 -7.765625 C 4.125 -7.765625 4.5 -7.742188 4.8125 -7.703125 Z M 4.359375 -4.1875 C 4.972656 -4.269531 5.28125 -4.65625 5.28125 -5.34375 C 5.28125 -6.03125 4.972656 -6.414062 4.359375 -6.5 C 4.179688 -6.519531 3.953125 -6.53125 3.671875 -6.53125 L 2.546875 -6.53125 L 2.546875 -4.15625 L 3.671875 -4.15625 C 3.953125 -4.15625 4.179688 -4.164062 4.359375 -4.1875 Z M 4.359375 -4.1875 "/></g></g></g><g fill="#21325e" fill-opacity="1"><g transform="translate(352.474547, 300.514317)"><g><path d="M 4.8125 -7.703125 C 5.4375 -7.640625 5.941406 -7.398438 6.328125 -6.984375 C 6.710938 -6.578125 6.90625 -6.03125 6.90625 -5.34375 C 6.90625 -4.65625 6.707031 -4.109375 6.3125 -3.703125 C 5.914062 -3.296875 5.414062 -3.054688 4.8125 -2.984375 C 4.488281 -2.941406 4.113281 -2.921875 3.6875 -2.921875 L 2.546875 -2.921875 L 2.546875 0 L 1 0 L 1 -7.765625 L 3.6875 -7.765625 C 4.125 -7.765625 4.5 -7.742188 4.8125 -7.703125 Z M 4.359375 -4.1875 C 4.972656 -4.269531 5.28125 -4.65625 5.28125 -5.34375 C 5.28125 -6.03125 4.972656 -6.414062 4.359375 -6.5 C 4.179688 -6.519531 3.953125 -6.53125 3.671875 -6.53125 L 2.546875 -6.53125 L 2.546875 -4.15625 L 3.671875 -4.15625 C 3.953125 -4.15625 4.179688 -4.164062 4.359375 -4.1875 Z M 4.359375 -4.1875 "/></g></g></g><g fill="#21325e" fill-opacity="1"><g transform="translate(361.137724, 300.514317)"><g><path d="M 3.578125 -7.921875 C 4.460938 -7.921875 5.140625 -7.695312 5.609375 -7.25 C 6.078125 -6.8125 6.359375 -6.222656 6.453125 -5.484375 L 4.859375 -5.484375 C 4.816406 -5.890625 4.679688 -6.203125 4.453125 -6.421875 C 4.234375 -6.648438 3.921875 -6.765625 3.515625 -6.765625 C 3.191406 -6.765625 2.929688 -6.679688 2.734375 -6.515625 C 2.535156 -6.359375 2.4375 -6.132812 2.4375 -5.84375 C 2.4375 -5.507812 2.554688 -5.25 2.796875 -5.0625 C 3.035156 -4.875 3.460938 -4.707031 4.078125 -4.5625 C 4.929688 -4.375 5.554688 -4.078125 5.953125 -3.671875 C 6.359375 -3.273438 6.5625 -2.765625 6.5625 -2.140625 C 6.5625 -1.429688 6.28125 -0.867188 5.71875 -0.453125 C 5.164062 -0.046875 4.488281 0.15625 3.6875 0.15625 C 2.738281 0.15625 1.984375 -0.0507812 1.421875 -0.46875 C 0.859375 -0.882812 0.539062 -1.492188 0.46875 -2.296875 L 2.0625 -2.296875 C 2.144531 -1.878906 2.332031 -1.554688 2.625 -1.328125 C 2.914062 -1.109375 3.265625 -1 3.671875 -1 C 4.023438 -1 4.320312 -1.085938 4.5625 -1.265625 C 4.8125 -1.453125 4.9375 -1.691406 4.9375 -1.984375 C 4.9375 -2.304688 4.816406 -2.566406 4.578125 -2.765625 C 4.347656 -2.972656 3.953125 -3.144531 3.390625 -3.28125 C 2.515625 -3.488281 1.863281 -3.765625 1.4375 -4.109375 C 1.007812 -4.460938 0.796875 -4.972656 0.796875 -5.640625 C 0.796875 -6.335938 1.066406 -6.890625 1.609375 -7.296875 C 2.148438 -7.710938 2.804688 -7.921875 3.578125 -7.921875 Z M 3.578125 -7.921875 "/></g></g></g></svg>