<svg xmlns="http://www.w3.org/2000/svg" xmlns:xlink="http://www.w3.org/1999/xlink" width="500" zoomAndPan="magnify" viewBox="0 0 375 374.999991" height="500" preserveAspectRatio="xMidYMid meet" version="1.0"><defs><g/></defs><g fill="#000000" fill-opacity="1"><g transform="translate(15.940939, 230.306326)"><g><path d="M 56.578125 -7.359375 C 56.921875 -6.078125 57.5625 -5.054688 58.5 -4.296875 C 59.4375 -3.535156 60.34375 -2.921875 61.21875 -2.453125 C 62.09375 -1.984375 62.472656 -1.515625 62.359375 -1.046875 C 62.242188 -0.703125 61.660156 -0.441406 60.609375 -0.265625 C 59.554688 -0.0859375 58.445312 0 57.28125 0 C 56.113281 0 55.351562 0 55 0 C 53.476562 0 52.015625 -0.144531 50.609375 -0.4375 C 49.210938 -0.726562 47.753906 -1.285156 46.234375 -2.109375 C 43.429688 -3.734375 42.03125 -6.179688 42.03125 -9.453125 L 42.03125 -69.53125 C 41.6875 -70.238281 41.335938 -71.117188 40.984375 -72.171875 C 40.753906 -72.753906 40.492188 -73.304688 40.203125 -73.828125 C 39.910156 -74.347656 39.472656 -74.84375 38.890625 -75.3125 C 38.765625 -75.4375 38.671875 -75.5 38.609375 -75.5 C 38.554688 -75.5 38.53125 -75.5 38.53125 -75.5 C 38.53125 -75.5 38.296875 -75.613281 37.828125 -75.84375 C 36.898438 -76.539062 35.910156 -77.066406 34.859375 -77.421875 C 34.390625 -77.535156 33.921875 -77.617188 33.453125 -77.671875 C 32.984375 -77.734375 32.515625 -77.765625 32.046875 -77.765625 C 31.703125 -77.765625 31.238281 -77.734375 30.65625 -77.671875 C 30.070312 -77.617188 29.367188 -77.535156 28.546875 -77.421875 C 27.035156 -77.066406 25.632812 -76.363281 24.34375 -75.3125 C 22.945312 -74.257812 22.070312 -72.6875 21.71875 -70.59375 C 21.71875 -70.46875 21.601562 -70.289062 21.375 -70.0625 C 21.375 -70.0625 21.375 -70.03125 21.375 -69.96875 C 21.375 -69.914062 21.375 -69.832031 21.375 -69.71875 L 21.375 -3.671875 L 25.921875 -3.671875 L 25.921875 -0.171875 L 2.984375 -0.171875 L 2.984375 -3.671875 L 6.3125 -3.671875 L 6.3125 -64.8125 C 6.3125 -64.8125 6.3125 -64.894531 6.3125 -65.0625 C 6.3125 -65.238281 6.25 -65.390625 6.125 -65.515625 C 5.894531 -66.097656 5.429688 -66.5625 4.734375 -66.90625 L 1.046875 -66.90625 L 1.046875 -69.71875 L 1.21875 -69.890625 C 1.6875 -70.117188 2.179688 -70.40625 2.703125 -70.75 C 3.234375 -71.101562 3.847656 -71.515625 4.546875 -71.984375 C 5.140625 -72.222656 5.84375 -72.601562 6.65625 -73.125 C 7.46875 -73.65625 8.34375 -74.210938 9.28125 -74.796875 C 10.332031 -75.378906 11.46875 -76.078125 12.6875 -76.890625 C 13.914062 -77.710938 15.175781 -78.585938 16.46875 -79.515625 C 18.101562 -80.679688 19.382812 -80.800781 20.3125 -79.875 C 21.019531 -79.050781 21.375 -78.113281 21.375 -77.0625 L 21.375 -76.890625 C 22.1875 -77.710938 23.296875 -78.53125 24.703125 -79.34375 C 26.210938 -80.28125 28.253906 -80.75 30.828125 -80.75 C 31.410156 -80.75 31.992188 -80.75 32.578125 -80.75 C 33.160156 -80.75 33.863281 -80.75 34.6875 -80.75 C 35.5 -80.632812 36.195312 -80.578125 36.78125 -80.578125 C 37.363281 -80.578125 37.890625 -80.515625 38.359375 -80.390625 C 43.847656 -79.347656 47.757812 -77.539062 50.09375 -74.96875 C 51.375 -73.6875 52.421875 -72.398438 53.234375 -71.109375 C 54.054688 -69.828125 54.703125 -68.601562 55.171875 -67.4375 C 56.109375 -65.800781 56.578125 -64.28125 56.578125 -62.875 L 56.578125 -8.234375 C 56.578125 -8.117188 56.578125 -8 56.578125 -7.875 C 56.578125 -7.757812 56.578125 -7.585938 56.578125 -7.359375 Z M 56.578125 -7.359375 "/></g></g></g><g fill="#000000" fill-opacity="1"><g transform="translate(75.664756, 230.306326)"><g><path d="M 46.9375 -23.46875 C 47.644531 -23.351562 48.171875 -23.296875 48.515625 -23.296875 C 48.867188 -23.296875 49.101562 -23.296875 49.21875 -23.296875 L 49.75 -23.296875 L 49.5625 -22.765625 C 49.445312 -22.296875 49.359375 -21.800781 49.296875 -21.28125 C 49.242188 -20.757812 49.21875 -20.207031 49.21875 -19.625 C 48.863281 -18.800781 48.515625 -17.75 48.171875 -16.46875 C 48.054688 -15.414062 47.703125 -14.25 47.109375 -12.96875 C 45.242188 -8.988281 42.382812 -5.773438 38.53125 -3.328125 C 34.5625 -0.992188 30.179688 0.171875 25.390625 0.171875 L 24.515625 0.171875 C 20.898438 0.171875 17.691406 -0.289062 14.890625 -1.21875 C 12.085938 -2.15625 9.867188 -3.265625 8.234375 -4.546875 C 6.484375 -5.722656 5.023438 -7.128906 3.859375 -8.765625 C 3.273438 -9.578125 2.773438 -10.332031 2.359375 -11.03125 C 1.953125 -11.726562 1.632812 -12.429688 1.40625 -13.140625 C 0.9375 -13.609375 0.703125 -14.363281 0.703125 -15.40625 C 0.585938 -15.875 0.5 -16.34375 0.4375 -16.8125 C 0.375 -17.28125 0.285156 -17.75 0.171875 -18.21875 C 0.0546875 -18.800781 0 -19.382812 0 -19.96875 C 0 -20.550781 0 -21.132812 0 -21.71875 L 0 -62 C 0.351562 -63.988281 0.878906 -65.972656 1.578125 -67.953125 C 1.929688 -68.773438 2.367188 -69.59375 2.890625 -70.40625 C 3.410156 -71.226562 4.023438 -72.109375 4.734375 -73.046875 C 6.128906 -74.796875 8.054688 -76.367188 10.515625 -77.765625 C 13.898438 -79.984375 18.453125 -81.09375 24.171875 -81.09375 L 25.21875 -81.09375 C 28.84375 -81.09375 32.171875 -80.628906 35.203125 -79.703125 C 36.609375 -79.234375 37.921875 -78.707031 39.140625 -78.125 C 40.367188 -77.539062 41.453125 -76.894531 42.390625 -76.1875 C 45.078125 -74.320312 47.03125 -71.957031 48.25 -69.09375 C 49.476562 -66.238281 50.269531 -63.234375 50.625 -60.078125 C 51.09375 -57.160156 51.0625 -54.15625 50.53125 -51.0625 C 50.007812 -47.96875 48.578125 -45.367188 46.234375 -43.265625 C 44.609375 -41.742188 42.742188 -40.660156 40.640625 -40.015625 C 38.535156 -39.378906 36.316406 -39.003906 33.984375 -38.890625 C 31.179688 -38.765625 28.378906 -38.671875 25.578125 -38.609375 C 22.773438 -38.554688 19.910156 -38.53125 16.984375 -38.53125 C 16.640625 -38.53125 16.289062 -38.53125 15.9375 -38.53125 C 15.582031 -38.53125 15.175781 -38.53125 14.71875 -38.53125 L 14.71875 -35.375 C 14.71875 -35.375 14.71875 -35.316406 14.71875 -35.203125 L 14.71875 -15.40625 C 14.71875 -12.488281 15.648438 -10.15625 17.515625 -8.40625 C 19.378906 -6.65625 21.597656 -5.601562 24.171875 -5.25 C 29.304688 -5.019531 33.394531 -6.070312 36.4375 -8.40625 C 39.238281 -10.507812 41.28125 -13.140625 42.5625 -16.296875 C 42.675781 -16.523438 42.789062 -16.8125 42.90625 -17.15625 C 43.03125 -17.507812 43.148438 -17.921875 43.265625 -18.390625 C 43.378906 -18.742188 43.460938 -19.09375 43.515625 -19.4375 C 43.578125 -19.789062 43.671875 -20.144531 43.796875 -20.5 C 43.910156 -20.84375 43.992188 -21.1875 44.046875 -21.53125 C 44.109375 -21.882812 44.195312 -22.238281 44.3125 -22.59375 L 44.3125 -23.125 L 44.671875 -23.296875 C 44.785156 -23.296875 44.988281 -23.320312 45.28125 -23.375 C 45.570312 -23.4375 46.125 -23.46875 46.9375 -23.46875 Z M 14.71875 -69.359375 L 14.71875 -44.3125 C 14.945312 -44.195312 15.175781 -44.082031 15.40625 -43.96875 C 15.644531 -43.851562 15.820312 -43.675781 15.9375 -43.4375 C 17.21875 -42.851562 18.617188 -42.53125 20.140625 -42.46875 C 21.660156 -42.414062 23.117188 -42.332031 24.515625 -42.21875 C 26.035156 -42.21875 27.554688 -42.273438 29.078125 -42.390625 C 30.597656 -42.503906 32.113281 -42.738281 33.625 -43.09375 C 35.257812 -43.5625 36.457031 -44.582031 37.21875 -46.15625 C 37.976562 -47.726562 38.535156 -49.273438 38.890625 -50.796875 C 39.585938 -53.484375 39.726562 -56.488281 39.3125 -59.8125 C 38.90625 -63.144531 37.972656 -66.269531 36.515625 -69.1875 C 35.054688 -72.101562 33.097656 -74.40625 30.640625 -76.09375 C 28.191406 -77.789062 25.273438 -78.347656 21.890625 -77.765625 C 20.492188 -77.421875 19.09375 -76.78125 17.6875 -75.84375 C 16.289062 -74.5625 15.414062 -72.925781 15.0625 -70.9375 C 14.832031 -70.238281 14.71875 -69.710938 14.71875 -69.359375 Z M 14.71875 -69.359375 "/></g></g></g><g fill="#000000" fill-opacity="1"><g transform="translate(126.981649, 230.306326)"><g><path d="M 54.828125 -6.3125 C 55.410156 -5.601562 56.429688 -4.664062 57.890625 -3.5 C 59.347656 -2.332031 60.546875 -1.867188 61.484375 -2.109375 C 61.015625 -1.984375 60.570312 -1.863281 60.15625 -1.75 C 59.75 -1.632812 59.316406 -1.457031 58.859375 -1.21875 C 58.148438 -1.101562 57.359375 -0.957031 56.484375 -0.78125 C 55.609375 -0.613281 54.644531 -0.53125 53.59375 -0.53125 C 49.039062 -0.289062 45.597656 -1.28125 43.265625 -3.5 C 41.273438 -5.132812 40.109375 -7.179688 39.765625 -9.640625 C 39.640625 -9.285156 39.460938 -8.929688 39.234375 -8.578125 C 39.003906 -8.234375 38.769531 -7.828125 38.53125 -7.359375 C 37.945312 -6.535156 37.097656 -5.6875 35.984375 -4.8125 C 34.878906 -3.9375 33.453125 -3.035156 31.703125 -2.109375 C 30.648438 -1.515625 29.597656 -1.070312 28.546875 -0.78125 C 27.492188 -0.488281 26.441406 -0.285156 25.390625 -0.171875 L 24.515625 -0.171875 C 24.398438 -0.171875 24.253906 -0.140625 24.078125 -0.078125 C 23.910156 -0.0234375 23.707031 0 23.46875 0 C 23 0 22.53125 -0.113281 22.0625 -0.34375 C 21.601562 -0.46875 21.195312 -0.554688 20.84375 -0.609375 C 20.488281 -0.671875 20.082031 -0.703125 19.625 -0.703125 L 19.4375 -0.875 C 18.96875 -1.101562 18.5625 -1.21875 18.21875 -1.21875 C 17.976562 -1.34375 17.710938 -1.429688 17.421875 -1.484375 C 17.128906 -1.546875 16.867188 -1.632812 16.640625 -1.75 C 13.367188 -3.15625 10.800781 -4.96875 8.9375 -7.1875 C 7.0625 -9.40625 5.71875 -11.445312 4.90625 -13.3125 C 4.082031 -15.300781 3.671875 -16.816406 3.671875 -17.859375 L 3.671875 -76.1875 L 0 -76.1875 L 0 -79.703125 L 22.953125 -79.703125 L 22.953125 -76.1875 L 18.390625 -76.1875 C 18.390625 -76.070312 18.390625 -75.894531 18.390625 -75.65625 C 18.390625 -75.425781 18.390625 -75.195312 18.390625 -74.96875 C 18.390625 -73.21875 18.390625 -71.460938 18.390625 -69.703125 C 18.390625 -67.953125 18.390625 -66.144531 18.390625 -64.28125 C 18.390625 -61.707031 18.390625 -59.164062 18.390625 -56.65625 C 18.390625 -54.144531 18.390625 -51.664062 18.390625 -49.21875 C 18.390625 -46.53125 18.390625 -43.875 18.390625 -41.25 C 18.390625 -38.625 18.390625 -35.96875 18.390625 -33.28125 C 18.390625 -31.175781 18.390625 -29.039062 18.390625 -26.875 C 18.390625 -24.71875 18.390625 -22.59375 18.390625 -20.5 C 18.390625 -18.625 18.332031 -16.75 18.21875 -14.875 C 18.101562 -13.007812 18.160156 -11.203125 18.390625 -9.453125 C 18.503906 -8.992188 18.617188 -8.5 18.734375 -7.96875 C 18.859375 -7.445312 19.09375 -6.953125 19.4375 -6.484375 C 20.144531 -5.785156 21.082031 -5.140625 22.25 -4.546875 C 23.414062 -3.847656 24.875 -3.617188 26.625 -3.859375 C 28.375 -4.085938 29.773438 -4.613281 30.828125 -5.4375 C 32.691406 -6.476562 34.5 -8.109375 36.25 -10.328125 C 38.007812 -12.671875 38.890625 -15.125 38.890625 -17.6875 L 38.890625 -76.1875 L 34.859375 -76.1875 L 34.859375 -79.703125 L 57.796875 -79.703125 L 57.796875 -76.1875 L 53.765625 -76.1875 C 53.765625 -75.488281 53.765625 -74.816406 53.765625 -74.171875 C 53.765625 -73.535156 53.765625 -73.21875 53.765625 -73.21875 C 53.765625 -67.84375 53.765625 -62.523438 53.765625 -57.265625 C 53.765625 -52.015625 53.765625 -46.765625 53.765625 -41.515625 C 53.765625 -38.597656 53.765625 -35.675781 53.765625 -32.75 C 53.765625 -29.832031 53.765625 -26.914062 53.765625 -24 C 53.765625 -22.832031 53.765625 -21.660156 53.765625 -20.484375 C 53.765625 -19.316406 53.765625 -18.148438 53.765625 -16.984375 C 53.765625 -15.234375 53.707031 -13.394531 53.59375 -11.46875 C 53.476562 -9.539062 53.890625 -7.820312 54.828125 -6.3125 Z M 54.828125 -6.3125 "/></g></g></g><g fill="#000000" fill-opacity="1"><g transform="translate(189.682923, 230.306326)"><g><path d="M 46.9375 -23.46875 C 47.644531 -23.351562 48.171875 -23.296875 48.515625 -23.296875 C 48.867188 -23.296875 49.101562 -23.296875 49.21875 -23.296875 L 49.75 -23.296875 L 49.5625 -22.765625 C 49.445312 -22.296875 49.359375 -21.800781 49.296875 -21.28125 C 49.242188 -20.757812 49.21875 -20.207031 49.21875 -19.625 C 48.863281 -18.800781 48.515625 -17.75 48.171875 -16.46875 C 48.054688 -15.414062 47.703125 -14.25 47.109375 -12.96875 C 45.242188 -8.988281 42.382812 -5.773438 38.53125 -3.328125 C 34.5625 -0.992188 30.179688 0.171875 25.390625 0.171875 L 24.515625 0.171875 C 20.898438 0.171875 17.691406 -0.289062 14.890625 -1.21875 C 12.085938 -2.15625 9.867188 -3.265625 8.234375 -4.546875 C 6.484375 -5.722656 5.023438 -7.128906 3.859375 -8.765625 C 3.273438 -9.578125 2.773438 -10.332031 2.359375 -11.03125 C 1.953125 -11.726562 1.632812 -12.429688 1.40625 -13.140625 C 0.9375 -13.609375 0.703125 -14.363281 0.703125 -15.40625 C 0.585938 -15.875 0.5 -16.34375 0.4375 -16.8125 C 0.375 -17.28125 0.285156 -17.75 0.171875 -18.21875 C 0.0546875 -18.800781 0 -19.382812 0 -19.96875 C 0 -20.550781 0 -21.132812 0 -21.71875 L 0 -62 C 0.351562 -63.988281 0.878906 -65.972656 1.578125 -67.953125 C 1.929688 -68.773438 2.367188 -69.59375 2.890625 -70.40625 C 3.410156 -71.226562 4.023438 -72.109375 4.734375 -73.046875 C 6.128906 -74.796875 8.054688 -76.367188 10.515625 -77.765625 C 13.898438 -79.984375 18.453125 -81.09375 24.171875 -81.09375 L 25.21875 -81.09375 C 28.84375 -81.09375 32.171875 -80.628906 35.203125 -79.703125 C 36.609375 -79.234375 37.921875 -78.707031 39.140625 -78.125 C 40.367188 -77.539062 41.453125 -76.894531 42.390625 -76.1875 C 45.078125 -74.320312 47.03125 -71.957031 48.25 -69.09375 C 49.476562 -66.238281 50.269531 -63.234375 50.625 -60.078125 C 51.09375 -57.160156 51.0625 -54.15625 50.53125 -51.0625 C 50.007812 -47.96875 48.578125 -45.367188 46.234375 -43.265625 C 44.609375 -41.742188 42.742188 -40.660156 40.640625 -40.015625 C 38.535156 -39.378906 36.316406 -39.003906 33.984375 -38.890625 C 31.179688 -38.765625 28.378906 -38.671875 25.578125 -38.609375 C 22.773438 -38.554688 19.910156 -38.53125 16.984375 -38.53125 C 16.640625 -38.53125 16.289062 -38.53125 15.9375 -38.53125 C 15.582031 -38.53125 15.175781 -38.53125 14.71875 -38.53125 L 14.71875 -35.375 C 14.71875 -35.375 14.71875 -35.316406 14.71875 -35.203125 L 14.71875 -15.40625 C 14.71875 -12.488281 15.648438 -10.15625 17.515625 -8.40625 C 19.378906 -6.65625 21.597656 -5.601562 24.171875 -5.25 C 29.304688 -5.019531 33.394531 -6.070312 36.4375 -8.40625 C 39.238281 -10.507812 41.28125 -13.140625 42.5625 -16.296875 C 42.675781 -16.523438 42.789062 -16.8125 42.90625 -17.15625 C 43.03125 -17.507812 43.148438 -17.921875 43.265625 -18.390625 C 43.378906 -18.742188 43.460938 -19.09375 43.515625 -19.4375 C 43.578125 -19.789062 43.671875 -20.144531 43.796875 -20.5 C 43.910156 -20.84375 43.992188 -21.1875 44.046875 -21.53125 C 44.109375 -21.882812 44.195312 -22.238281 44.3125 -22.59375 L 44.3125 -23.125 L 44.671875 -23.296875 C 44.785156 -23.296875 44.988281 -23.320312 45.28125 -23.375 C 45.570312 -23.4375 46.125 -23.46875 46.9375 -23.46875 Z M 14.71875 -69.359375 L 14.71875 -44.3125 C 14.945312 -44.195312 15.175781 -44.082031 15.40625 -43.96875 C 15.644531 -43.851562 15.820312 -43.675781 15.9375 -43.4375 C 17.21875 -42.851562 18.617188 -42.53125 20.140625 -42.46875 C 21.660156 -42.414062 23.117188 -42.332031 24.515625 -42.21875 C 26.035156 -42.21875 27.554688 -42.273438 29.078125 -42.390625 C 30.597656 -42.503906 32.113281 -42.738281 33.625 -43.09375 C 35.257812 -43.5625 36.457031 -44.582031 37.21875 -46.15625 C 37.976562 -47.726562 38.535156 -49.273438 38.890625 -50.796875 C 39.585938 -53.484375 39.726562 -56.488281 39.3125 -59.8125 C 38.90625 -63.144531 37.972656 -66.269531 36.515625 -69.1875 C 35.054688 -72.101562 33.097656 -74.40625 30.640625 -76.09375 C 28.191406 -77.789062 25.273438 -78.347656 21.890625 -77.765625 C 20.492188 -77.421875 19.09375 -76.78125 17.6875 -75.84375 C 16.289062 -74.5625 15.414062 -72.925781 15.0625 -70.9375 C 14.832031 -70.238281 14.71875 -69.710938 14.71875 -69.359375 Z M 14.71875 -69.359375 "/></g></g></g><g fill="#000000" fill-opacity="1"><g transform="translate(240.999816, 230.306326)"><g><path d="M 44.84375 -1.921875 C 43.320312 -1.453125 41.800781 -1.101562 40.28125 -0.875 C 38.769531 -0.644531 37.195312 -0.53125 35.5625 -0.53125 L -0.34375 -0.53125 L -0.34375 -3.5 L 5.078125 -3.5 C 5.660156 -3.5 6.070312 -3.554688 6.3125 -3.671875 C 7.007812 -4.023438 7.53125 -4.492188 7.875 -5.078125 C 7.875 -5.316406 7.90625 -5.519531 7.96875 -5.6875 C 8.03125 -5.863281 8.0625 -6.007812 8.0625 -6.125 L 8.0625 -130.671875 C 8.0625 -131.015625 8 -131.304688 7.875 -131.546875 C 7.53125 -132.359375 7.066406 -132.882812 6.484375 -133.125 C 5.898438 -133.125 5.429688 -133.179688 5.078125 -133.296875 C 4.722656 -133.296875 4.367188 -133.296875 4.015625 -133.296875 C 3.671875 -133.296875 3.328125 -133.296875 2.984375 -133.296875 L -0.34375 -133.296875 L -0.34375 -136.265625 L 35.5625 -136.265625 C 41.976562 -136.265625 47.523438 -134.691406 52.203125 -131.546875 C 56.867188 -128.160156 59.4375 -123.78125 59.90625 -118.40625 L 59.90625 -18.5625 C 59.90625 -15.875 59.265625 -13.484375 57.984375 -11.390625 C 57.390625 -10.335938 56.625 -9.34375 55.6875 -8.40625 C 54.757812 -7.46875 53.769531 -6.59375 52.71875 -5.78125 C 51.550781 -4.957031 50.320312 -4.222656 49.03125 -3.578125 C 47.75 -2.941406 46.351562 -2.390625 44.84375 -1.921875 Z M 35.734375 -3.671875 C 39.347656 -3.671875 41.738281 -4.898438 42.90625 -7.359375 C 44.3125 -10.046875 45.191406 -12.726562 45.546875 -15.40625 L 45.546875 -121.5625 C 45.546875 -122.84375 45.367188 -124.066406 45.015625 -125.234375 C 44.660156 -126.515625 44.132812 -127.800781 43.4375 -129.09375 C 42.625 -130.257812 41.632812 -131.191406 40.46875 -131.890625 C 39.289062 -132.710938 37.710938 -133.125 35.734375 -133.125 L 23.46875 -133.125 L 23.46875 -3.671875 Z M 35.734375 -3.671875 "/></g></g></g><g fill="#000000" fill-opacity="1"><g transform="translate(302.650217, 230.306326)"><g><path d="M 49.046875 -67.609375 C 49.859375 -66.085938 50.265625 -64.628906 50.265625 -63.234375 L 50.265625 -18.734375 C 49.921875 -16.640625 49.394531 -14.71875 48.6875 -12.96875 C 48.101562 -11.445312 47.113281 -9.691406 45.71875 -7.703125 C 44.3125 -5.953125 42.382812 -4.378906 39.9375 -2.984375 C 36.082031 -0.765625 31.585938 0.34375 26.453125 0.34375 L 25.390625 0.34375 C 23.523438 0.34375 21.773438 0.226562 20.140625 0 C 18.503906 -0.226562 16.988281 -0.578125 15.59375 -1.046875 C 14.300781 -1.515625 13.097656 -2.039062 11.984375 -2.625 C 10.878906 -3.207031 9.863281 -3.789062 8.9375 -4.375 C 7.0625 -5.78125 5.597656 -7.242188 4.546875 -8.765625 C 4.085938 -9.460938 3.648438 -10.1875 3.234375 -10.9375 C 2.828125 -11.695312 2.507812 -12.429688 2.28125 -13.140625 C 1.34375 -15.359375 0.875 -16.816406 0.875 -17.515625 L 0.875 -62 C 1.226562 -63.988281 1.753906 -65.914062 2.453125 -67.78125 C 3.265625 -69.53125 4.316406 -71.222656 5.609375 -72.859375 C 6.304688 -73.796875 7.148438 -74.671875 8.140625 -75.484375 C 9.140625 -76.304688 10.222656 -77.007812 11.390625 -77.59375 C 15.117188 -79.925781 19.671875 -81.09375 25.046875 -81.09375 L 25.921875 -81.09375 C 29.546875 -81.09375 32.757812 -80.628906 35.5625 -79.703125 C 36.84375 -79.347656 38.066406 -78.878906 39.234375 -78.296875 C 40.398438 -77.710938 41.453125 -77.128906 42.390625 -76.546875 C 43.328125 -75.847656 44.144531 -75.144531 44.84375 -74.4375 C 45.539062 -73.738281 46.125 -72.984375 46.59375 -72.171875 C 47.757812 -70.410156 48.578125 -68.890625 49.046875 -67.609375 Z M 15.59375 -69.359375 C 15.59375 -67.835938 15.59375 -66.316406 15.59375 -64.796875 C 15.59375 -63.285156 15.59375 -61.769531 15.59375 -60.25 C 15.59375 -56.632812 15.59375 -53.015625 15.59375 -49.390625 C 15.59375 -45.773438 15.59375 -42.15625 15.59375 -38.53125 C 15.59375 -35.03125 15.59375 -31.554688 15.59375 -28.109375 C 15.59375 -24.671875 15.59375 -21.195312 15.59375 -17.6875 C 15.59375 -16.757812 15.59375 -15.796875 15.59375 -14.796875 C 15.59375 -13.804688 15.59375 -12.84375 15.59375 -11.90625 C 15.820312 -9.457031 16.84375 -7.328125 18.65625 -5.515625 C 20.46875 -3.703125 22.597656 -2.796875 25.046875 -2.796875 C 25.515625 -2.796875 26.039062 -2.828125 26.625 -2.890625 C 27.207031 -2.953125 27.847656 -3.039062 28.546875 -3.15625 C 29.953125 -3.269531 31.410156 -3.910156 32.921875 -5.078125 C 33.859375 -5.898438 34.617188 -6.953125 35.203125 -8.234375 C 35.671875 -9.398438 35.875 -10.625 35.8125 -11.90625 C 35.757812 -13.195312 35.734375 -14.425781 35.734375 -15.59375 C 35.847656 -16.875 35.90625 -18.15625 35.90625 -19.4375 C 35.90625 -20.726562 35.90625 -22.015625 35.90625 -23.296875 C 35.90625 -25.628906 35.90625 -27.960938 35.90625 -30.296875 C 35.90625 -32.640625 35.90625 -34.921875 35.90625 -37.140625 C 35.90625 -39.585938 35.90625 -42.066406 35.90625 -44.578125 C 35.90625 -47.085938 35.90625 -49.566406 35.90625 -52.015625 C 35.90625 -54.003906 35.90625 -55.988281 35.90625 -57.96875 C 35.90625 -59.957031 35.90625 -61.945312 35.90625 -63.9375 C 35.90625 -64.863281 35.90625 -65.796875 35.90625 -66.734375 C 35.90625 -67.671875 35.847656 -68.546875 35.734375 -69.359375 C 35.617188 -69.941406 35.472656 -70.46875 35.296875 -70.9375 C 35.117188 -71.40625 34.914062 -71.875 34.6875 -72.34375 C 34.332031 -73.507812 33.570312 -74.5625 32.40625 -75.5 C 31.125 -76.664062 29.957031 -77.304688 28.90625 -77.421875 C 27.851562 -77.765625 26.914062 -77.9375 26.09375 -77.9375 C 25.75 -77.9375 25.285156 -77.90625 24.703125 -77.84375 C 24.117188 -77.789062 23.414062 -77.707031 22.59375 -77.59375 C 21.894531 -77.476562 21.191406 -77.273438 20.484375 -76.984375 C 19.785156 -76.691406 19.144531 -76.253906 18.5625 -75.671875 C 17.28125 -74.378906 16.40625 -72.742188 15.9375 -70.765625 C 15.707031 -70.066406 15.59375 -69.597656 15.59375 -69.359375 Z M 15.59375 -69.359375 "/></g></g></g><g fill="#000000" fill-opacity="1"><g transform="translate(279.72931, 250.337331)"><g><path d="M 6.609375 -1.21875 L 6.609375 0 L 1 0 L 1 -7.765625 L 6.484375 -7.765625 L 6.484375 -6.546875 L 2.546875 -6.546875 L 2.546875 -4.5 L 6.203125 -4.5 L 6.203125 -3.28125 L 2.546875 -3.28125 L 2.546875 -1.21875 Z M 6.609375 -1.21875 "/></g></g></g><g fill="#000000" fill-opacity="1"><g transform="translate(286.403136, 250.337331)"><g><path d="M 3.578125 -7.921875 C 4.460938 -7.921875 5.140625 -7.695312 5.609375 -7.25 C 6.078125 -6.8125 6.359375 -6.222656 6.453125 -5.484375 L 4.859375 -5.484375 C 4.816406 -5.890625 4.679688 -6.203125 4.453125 -6.421875 C 4.234375 -6.648438 3.921875 -6.765625 3.515625 -6.765625 C 3.191406 -6.765625 2.929688 -6.679688 2.734375 -6.515625 C 2.535156 -6.359375 2.4375 -6.132812 2.4375 -5.84375 C 2.4375 -5.507812 2.554688 -5.25 2.796875 -5.0625 C 3.035156 -4.875 3.460938 -4.707031 4.078125 -4.5625 C 4.929688 -4.375 5.554688 -4.078125 5.953125 -3.671875 C 6.359375 -3.273438 6.5625 -2.765625 6.5625 -2.140625 C 6.5625 -1.429688 6.28125 -0.867188 5.71875 -0.453125 C 5.164062 -0.046875 4.488281 0.15625 3.6875 0.15625 C 2.738281 0.15625 1.984375 -0.0507812 1.421875 -0.46875 C 0.859375 -0.882812 0.539062 -1.492188 0.46875 -2.296875 L 2.0625 -2.296875 C 2.144531 -1.878906 2.332031 -1.554688 2.625 -1.328125 C 2.914062 -1.109375 3.265625 -1 3.671875 -1 C 4.023438 -1 4.320312 -1.085938 4.5625 -1.265625 C 4.8125 -1.453125 4.9375 -1.691406 4.9375 -1.984375 C 4.9375 -2.304688 4.816406 -2.566406 4.578125 -2.765625 C 4.347656 -2.972656 3.953125 -3.144531 3.390625 -3.28125 C 2.515625 -3.488281 1.863281 -3.765625 1.4375 -4.109375 C 1.007812 -4.460938 0.796875 -4.972656 0.796875 -5.640625 C 0.796875 -6.335938 1.066406 -6.890625 1.609375 -7.296875 C 2.148438 -7.710938 2.804688 -7.921875 3.578125 -7.921875 Z M 3.578125 -7.921875 "/></g></g></g><g fill="#000000" fill-opacity="1"><g transform="translate(292.98692, 250.337331)"><g><path d="M 7.078125 -6.546875 L 4.4375 -6.546875 L 4.4375 0 L 2.890625 0 L 2.890625 -6.546875 L 0.265625 -6.546875 L 0.265625 -7.765625 L 7.078125 -7.765625 Z M 7.078125 -6.546875 "/></g></g></g><g fill="#000000" fill-opacity="1"><g transform="translate(299.739526, 250.337331)"><g><path d="M 4.671875 -7.71875 C 5.628906 -7.601562 6.398438 -7.234375 6.984375 -6.609375 C 7.566406 -5.992188 7.859375 -5.117188 7.859375 -3.984375 C 7.859375 -2.835938 7.554688 -1.921875 6.953125 -1.234375 C 6.359375 -0.554688 5.585938 -0.160156 4.640625 -0.046875 C 4.378906 -0.015625 4.050781 0 3.65625 0 L 1 0 L 1 -7.765625 L 3.671875 -7.765625 C 4.078125 -7.765625 4.410156 -7.75 4.671875 -7.71875 Z M 4.296875 -1.265625 C 4.890625 -1.335938 5.359375 -1.609375 5.703125 -2.078125 C 6.046875 -2.554688 6.21875 -3.179688 6.21875 -3.953125 C 6.21875 -4.703125 6.046875 -5.296875 5.703125 -5.734375 C 5.367188 -6.171875 4.910156 -6.425781 4.328125 -6.5 C 4.097656 -6.53125 3.820312 -6.546875 3.5 -6.546875 L 2.546875 -6.546875 L 2.546875 -1.21875 L 3.46875 -1.21875 C 3.851562 -1.21875 4.128906 -1.234375 4.296875 -1.265625 Z M 4.296875 -1.265625 "/></g></g></g><g fill="#000000" fill-opacity="1"><g transform="translate(307.707595, 250.337331)"><g/></g></g><g fill="#000000" fill-opacity="1"><g transform="translate(309.632088, 250.337331)"><g><path d="M 3.03125 -1.21875 L 6.328125 -1.21875 L 6.328125 0 L 0.65625 0 L 0.65625 -0.734375 L 3.28125 -3.28125 C 3.820312 -3.820312 4.195312 -4.253906 4.40625 -4.578125 C 4.625 -4.898438 4.734375 -5.242188 4.734375 -5.609375 C 4.734375 -5.953125 4.632812 -6.226562 4.4375 -6.4375 C 4.25 -6.65625 3.976562 -6.765625 3.625 -6.765625 C 3.238281 -6.765625 2.945312 -6.644531 2.75 -6.40625 C 2.550781 -6.175781 2.425781 -5.828125 2.375 -5.359375 L 2.359375 -5.25 L 0.828125 -5.25 L 0.828125 -5.359375 C 0.910156 -6.191406 1.203125 -6.828125 1.703125 -7.265625 C 2.210938 -7.710938 2.898438 -7.9375 3.765625 -7.9375 C 4.597656 -7.9375 5.238281 -7.734375 5.6875 -7.328125 C 6.144531 -6.921875 6.375 -6.375 6.375 -5.6875 C 6.375 -5.207031 6.238281 -4.753906 5.96875 -4.328125 C 5.695312 -3.910156 5.203125 -3.34375 4.484375 -2.625 Z M 3.03125 -1.21875 "/></g></g></g><g fill="#000000" fill-opacity="1"><g transform="translate(316.407188, 250.337331)"><g><path d="M 3.515625 -7.921875 C 5.523438 -7.921875 6.53125 -6.570312 6.53125 -3.875 C 6.53125 -1.1875 5.523438 0.15625 3.515625 0.15625 C 1.503906 0.15625 0.5 -1.1875 0.5 -3.875 C 0.5 -6.570312 1.503906 -7.921875 3.515625 -7.921875 Z M 2.46875 -1.703125 C 2.695312 -1.234375 3.046875 -1 3.515625 -1 C 3.992188 -1 4.34375 -1.234375 4.5625 -1.703125 C 4.78125 -2.171875 4.890625 -2.894531 4.890625 -3.875 C 4.890625 -4.863281 4.78125 -5.59375 4.5625 -6.0625 C 4.34375 -6.53125 3.992188 -6.765625 3.515625 -6.765625 C 3.035156 -6.765625 2.6875 -6.53125 2.46875 -6.0625 C 2.25 -5.59375 2.140625 -4.863281 2.140625 -3.875 C 2.140625 -2.894531 2.25 -2.171875 2.46875 -1.703125 Z M 2.46875 -1.703125 "/></g></g></g><g fill="#000000" fill-opacity="1"><g transform="translate(323.182289, 250.337331)"><g><path d="M 5.203125 -7.765625 L 5.203125 0 L 3.640625 0 L 3.640625 -6.125 L 1.390625 -4.875 L 1.390625 -6.34375 L 3.1875 -7.40625 C 3.59375 -7.644531 4.007812 -7.765625 4.4375 -7.765625 Z M 5.203125 -7.765625 "/></g></g></g><g fill="#000000" fill-opacity="1"><g transform="translate(329.957389, 250.337331)"><g><path d="M 5.015625 -4.109375 C 5.429688 -3.960938 5.78125 -3.722656 6.0625 -3.390625 C 6.34375 -3.066406 6.484375 -2.664062 6.484375 -2.1875 C 6.484375 -1.382812 6.203125 -0.789062 5.640625 -0.40625 C 5.085938 -0.0195312 4.375 0.171875 3.5 0.171875 C 2.582031 0.171875 1.859375 -0.0195312 1.328125 -0.40625 C 0.804688 -0.789062 0.546875 -1.382812 0.546875 -2.1875 C 0.546875 -2.65625 0.6875 -3.054688 0.96875 -3.390625 C 1.257812 -3.722656 1.617188 -3.960938 2.046875 -4.109375 C 1.285156 -4.398438 0.90625 -4.953125 0.90625 -5.765625 C 0.90625 -6.421875 1.144531 -6.941406 1.625 -7.328125 C 2.101562 -7.722656 2.765625 -7.921875 3.609375 -7.921875 C 4.453125 -7.921875 5.109375 -7.722656 5.578125 -7.328125 C 6.054688 -6.941406 6.296875 -6.421875 6.296875 -5.765625 C 6.296875 -5.347656 6.175781 -5 5.9375 -4.71875 C 5.695312 -4.4375 5.390625 -4.234375 5.015625 -4.109375 Z M 3.59375 -6.765625 C 3.257812 -6.765625 2.992188 -6.664062 2.796875 -6.46875 C 2.609375 -6.269531 2.515625 -6.015625 2.515625 -5.703125 C 2.515625 -5.367188 2.609375 -5.101562 2.796875 -4.90625 C 2.984375 -4.71875 3.242188 -4.625 3.578125 -4.625 C 3.921875 -4.625 4.191406 -4.71875 4.390625 -4.90625 C 4.597656 -5.101562 4.703125 -5.367188 4.703125 -5.703125 C 4.703125 -6.015625 4.601562 -6.269531 4.40625 -6.46875 C 4.207031 -6.664062 3.9375 -6.765625 3.59375 -6.765625 Z M 3.515625 -0.984375 C 3.972656 -0.984375 4.3125 -1.09375 4.53125 -1.3125 C 4.75 -1.53125 4.859375 -1.832031 4.859375 -2.21875 C 4.859375 -2.59375 4.742188 -2.894531 4.515625 -3.125 C 4.285156 -3.351562 3.953125 -3.46875 3.515625 -3.46875 C 3.085938 -3.46875 2.753906 -3.351562 2.515625 -3.125 C 2.285156 -2.894531 2.171875 -2.597656 2.171875 -2.234375 C 2.171875 -1.847656 2.285156 -1.539062 2.515625 -1.3125 C 2.753906 -1.09375 3.085938 -0.984375 3.515625 -0.984375 Z M 3.515625 -0.984375 "/></g></g></g></svg>